#!OML:ASF C:\Vicon Data\Big\jianyuan-12\jianyuan\Session 1\Capture.male.ASF
:FULLY-SPECIFIED
:DEGREES
1
root -7.733500 17.257600 -23.999400 5.831858 -1.574227 12.500422
lowerback -9.128340 -4.480730 -10.608100 
upperback 1.698270 -4.550800 -1.435450 
thorax 7.695560 -2.607850 3.666880 
lowerneck 0.167057 -9.506850 -7.498220 
upperneck 2.449180 -12.958200 13.192600 
head 2.064890 -6.344360 4.799310 
rclavicle 0.000000 0.000000 
rhumerus -51.042100 -40.931200 -60.972400 
rradius 27.708700 
rwrist 49.360400 
rhand -19.653700 -4.947870 
rfingers 0.000000 
rthumb 6.674170 -34.822700 
lclavicle 0.000000 0.000000 
lhumerus -15.643600 12.298900 88.493000 
lradius 43.164800 
lwrist -30.098700 
lhand -11.981000 5.463420 
lfingers 0.000000 
lthumb 14.075300 34.966800 
rfemur -37.684100 -2.645420 13.189300 
rtibia 27.402100 
rfoot -19.156000 -15.374700 
rtoes -0.046146 
lfemur 11.541100 0.257226 -33.883200 
ltibia 5.414020 
lfoot -17.071800 5.885090 
ltoes -37.405600 
2
root -7.753238 17.248622 -23.791431 5.487490 -0.819639 12.604291
lowerback -8.866671 -4.674427 -10.550322 
upperback 1.736968 -4.844917 -1.466208 
thorax 7.623603 -2.746336 3.564298 
lowerneck 0.367903 -9.592056 -7.362641 
upperneck 2.193662 -13.053720 13.026694 
head 1.946583 -6.407815 4.740989 
rclavicle 0.000000 0.000000 
rhumerus -51.407392 -41.045322 -60.703073 
rradius 27.806481 
rwrist 49.600850 
rhand -19.927883 -5.298649 
rfingers 0.000000 
rthumb 6.409436 -35.181657 
lclavicle 0.000000 0.000000 
lhumerus -16.100299 12.368977 88.417450 
lradius 43.081023 
lwrist -30.133372 
lhand -11.878058 5.471295 
lfingers 0.000000 
lthumb 14.174509 34.967699 
rfemur -36.661128 -3.510767 13.332750 
rtibia 28.260053 
rfoot -17.525792 -14.904789 
rtoes 6.618377 
lfemur 11.314214 -0.044953 -33.657573 
ltibia 8.195646 
lfoot -17.148196 5.178290 
ltoes -37.621580 
3
root -7.774175 17.243493 -23.681307 5.554116 -0.950661 12.594335
lowerback -9.129759 -4.637966 -10.553730 
upperback 1.708747 -4.765494 -1.440302 
thorax 7.734723 -2.711376 3.591018 
lowerneck 0.406870 -9.630124 -7.415711 
upperneck 2.147752 -13.104256 13.075560 
head 1.938824 -6.435199 4.763773 
rclavicle 0.000000 0.000000 
rhumerus -51.354753 -40.933437 -60.812811 
rradius 27.789778 
rwrist 49.219898 
rhand -19.910666 -5.122710 
rfingers 0.000000 
rthumb 6.426056 -35.005212 
lclavicle 0.000000 0.000000 
lhumerus -16.277311 12.481773 88.401564 
lradius 42.954448 
lwrist -30.245245 
lhand -11.824013 5.397172 
lfingers 0.000000 
lthumb 14.226600 34.889922 
rfemur -36.535696 -3.493048 13.476550 
rtibia 28.678217 
rfoot -16.969929 -14.532201 
rtoes 10.634788 
lfemur 11.008687 0.245293 -33.490434 
ltibia 9.354222 
lfoot -17.041715 4.834542 
ltoes -37.623911 
4
root -7.795946 17.246283 -23.572952 5.729968 -1.055346 12.516748
lowerback -9.460656 -4.619277 -10.486676 
upperback 1.615801 -4.719171 -1.370839 
thorax 7.816201 -2.687972 3.618310 
lowerneck 0.500954 -9.649395 -7.532069 
upperneck 2.103039 -13.132157 13.108341 
head 1.923052 -6.454551 4.795555 
rclavicle 0.000000 0.000000 
rhumerus -51.403665 -40.785036 -60.849299 
rradius 27.905035 
rwrist 48.900412 
rhand -19.712201 -5.209254 
rfingers 0.000000 
rthumb 6.617672 -35.085783 
lclavicle 0.000000 0.000000 
lhumerus -16.541011 12.609348 88.391051 
lradius 42.806188 
lwrist -30.354305 
lhand -11.867824 5.426301 
lfingers 0.000000 
lthumb 14.184405 34.922025 
rfemur -36.582326 -3.424663 13.679813 
rtibia 29.071693 
rfoot -16.682955 -14.397777 
rtoes 12.803837 
lfemur 10.664168 0.491772 -33.259984 
ltibia 10.305551 
lfoot -16.693796 4.646668 
ltoes -38.310790 
5
root -7.815989 17.253365 -23.463660 5.694588 -1.031344 12.579020
lowerback -9.565356 -4.621431 -10.549664 
upperback 1.589203 -4.703314 -1.353740 
thorax 7.852404 -2.683542 3.668061 
lowerneck 0.507678 -9.674350 -7.740430 
upperneck 2.161651 -13.176157 13.213672 
head 1.964851 -6.475725 4.854482 
rclavicle 0.000000 0.000000 
rhumerus -51.513428 -40.769225 -60.762679 
rradius 27.926240 
rwrist 48.893418 
rhand -19.774687 -5.284531 
rfingers 0.000000 
rthumb 6.557375 -35.162980 
lclavicle 0.000000 0.000000 
lhumerus -16.815095 12.613913 88.379305 
lradius 42.688383 
lwrist -30.453781 
lhand -11.663554 5.366279 
lfingers 0.000000 
lthumb 14.381245 34.848061 
rfemur -36.450172 -3.455272 13.740750 
rtibia 29.436738 
rfoot -16.563947 -14.468868 
rtoes 11.970125 
lfemur 10.658991 0.626927 -33.167713 
ltibia 11.061398 
lfoot -16.216199 4.498911 
ltoes -38.842343 
6
root -7.832111 17.265503 -23.354364 5.477709 -0.759413 12.434101
lowerback -9.399485 -4.647604 -10.361690 
upperback 1.599512 -4.790153 -1.302467 
thorax 7.767814 -2.718643 3.614388 
lowerneck 0.573110 -9.727322 -7.786731 
upperneck 2.149986 -13.249397 13.194139 
head 1.960169 -6.515628 4.855266 
rclavicle 0.000000 0.000000 
rhumerus -51.614169 -40.688995 -60.724000 
rradius 27.916035 
rwrist 48.904732 
rhand -19.961371 -5.270245 
rfingers 0.000000 
rthumb 6.377117 -35.154236 
lclavicle 0.000000 0.000000 
lhumerus -17.125614 12.753980 88.350469 
lradius 42.567060 
lwrist -30.669149 
lhand -11.647962 5.473080 
lfingers 0.000000 
lthumb 14.396212 34.953821 
rfemur -36.070727 -3.577290 13.980982 
rtibia 29.727444 
rfoot -16.835042 -14.732223 
rtoes 8.897667 
lfemur 10.930299 0.552719 -32.823482 
ltibia 11.689228 
lfoot -15.585179 4.381134 
ltoes -39.024085 
7
root -7.851079 17.280196 -23.243162 5.311541 -0.528889 12.295912
lowerback -9.372910 -4.679340 -10.196390 
upperback 1.634091 -4.860925 -1.254671 
thorax 7.789042 -2.750852 3.561315 
lowerneck 0.708200 -9.749592 -7.834519 
upperneck 2.000323 -13.274020 13.248370 
head 1.903699 -6.536243 4.888120 
rclavicle 0.000000 0.000000 
rhumerus -51.683233 -40.634802 -60.720414 
rradius 27.956923 
rwrist 48.862796 
rhand -20.052290 -5.220250 
rfingers 0.000000 
rthumb 6.289296 -35.106890 
lclavicle 0.000000 0.000000 
lhumerus -17.319717 12.931939 88.308790 
lradius 42.263177 
lwrist -30.769049 
lhand -11.763414 5.365978 
lfingers 0.000000 
lthumb 14.284972 34.854608 
rfemur -35.665259 -3.451921 14.139645 
rtibia 29.859298 
rfoot -17.363093 -15.207896 
rtoes 6.031126 
lfemur 10.998371 0.617275 -32.444151 
ltibia 12.599899 
lfoot -14.942783 4.076851 
ltoes -39.332551 
8
root -7.873007 17.289438 -23.136397 5.227377 -0.504463 12.142154
lowerback -9.470087 -4.652021 -10.046862 
upperback 1.659359 -4.837350 -1.193405 
thorax 7.860002 -2.739422 3.540796 
lowerneck 0.762961 -9.801439 -7.938263 
upperneck 1.917649 -13.342994 13.343677 
head 1.891511 -6.574250 4.932989 
rclavicle 0.000000 0.000000 
rhumerus -51.603384 -40.549854 -60.857751 
rradius 28.029485 
rwrist 48.485199 
rhand -19.884625 -5.229854 
rfingers 0.000000 
rthumb 6.451194 -35.111604 
lclavicle 0.000000 0.000000 
lhumerus -17.521594 13.108171 88.298836 
lradius 42.015963 
lwrist -30.963620 
lhand -11.658352 5.261396 
lfingers 0.000000 
lthumb 14.386220 34.742871 
rfemur -35.299948 -2.910996 14.205647 
rtibia 29.866559 
rfoot -17.830948 -15.636037 
rtoes 6.688842 
lfemur 10.786469 0.801168 -32.060784 
ltibia 13.804070 
lfoot -14.506878 3.718062 
ltoes -39.329513 
9
root -7.897676 17.298269 -23.034294 5.345070 -0.707316 11.831610
lowerback -9.761670 -4.558597 -9.749092 
upperback 1.605154 -4.731570 -1.083919 
thorax 7.934317 -2.680853 3.496736 
lowerneck 0.868686 -9.859692 -7.897943 
upperneck 1.803677 -13.414269 13.268961 
head 1.840423 -6.617398 4.909465 
rclavicle 0.000000 0.000000 
rhumerus -51.535335 -40.409201 -61.003516 
rradius 28.041026 
rwrist 48.118442 
rhand -19.890105 -5.222721 
rfingers 0.000000 
rthumb 6.445944 -35.104619 
lclavicle 0.000000 0.000000 
lhumerus -17.789433 13.291970 88.268149 
lradius 41.787768 
lwrist -31.237413 
lhand -11.608327 5.331822 
lfingers 0.000000 
lthumb 14.434398 34.809870 
rfemur -35.173647 -2.248750 14.462293 
rtibia 29.831698 
rfoot -17.899205 -15.934447 
rtoes 10.165813 
lfemur 10.211445 1.057772 -31.567632 
ltibia 15.202434 
lfoot -14.161486 3.533982 
ltoes -39.393783 
10
root -7.919650 17.306984 -22.931410 5.426214 -0.810309 11.570128
lowerback -10.032845 -4.496328 -9.484320 
upperback 1.596731 -4.662155 -0.992202 
thorax 8.054190 -2.643306 3.444076 
lowerneck 0.855748 -9.931795 -7.848627 
upperneck 1.745588 -13.504328 13.203762 
head 1.827214 -6.663862 4.878419 
rclavicle 0.000000 0.000000 
rhumerus -51.584475 -40.523280 -60.908458 
rradius 28.016630 
rwrist 48.253974 
rhand -19.952008 -5.118765 
rfingers 0.000000 
rthumb 6.386180 -35.002459 
lclavicle 0.000000 0.000000 
lhumerus -17.969107 13.531699 88.240488 
lradius 41.479302 
lwrist -31.519514 
lhand -11.683563 5.276966 
lfingers 0.000000 
lthumb 14.361950 34.760196 
rfemur -34.978865 -1.904953 14.736519 
rtibia 29.793191 
rfoot -17.415155 -16.252263 
rtoes 13.415560 
lfemur 9.585721 1.282266 -31.119347 
ltibia 16.823787 
lfoot -13.876152 3.295642 
ltoes -39.301510 
11
root -7.941882 17.312799 -22.829204 5.340975 -0.798868 11.302130
lowerback -10.082097 -4.440427 -9.241456 
upperback 1.620622 -4.624055 -0.900766 
thorax 8.088560 -2.620714 3.410830 
lowerneck 0.932849 -9.986085 -7.831366 
upperneck 1.627474 -13.570806 13.250882 
head 1.789303 -6.701573 4.893344 
rclavicle 0.000000 0.000000 
rhumerus -51.588861 -40.564182 -60.914619 
rradius 28.070884 
rwrist 48.345994 
rhand -19.850964 -5.222462 
rfingers 0.000000 
rthumb 6.483668 -35.103246 
lclavicle 0.000000 0.000000 
lhumerus -18.174672 13.786660 88.219296 
lradius 41.131109 
lwrist -31.736547 
lhand -11.618644 5.231386 
lfingers 0.000000 
lthumb 14.424475 34.710134 
rfemur -34.601824 -1.658720 15.039604 
rtibia 29.842792 
rfoot -16.832043 -16.422099 
rtoes 15.287292 
lfemur 9.101394 1.430454 -30.643319 
ltibia 18.505630 
lfoot -13.467032 3.084422 
ltoes -39.836103 
12
root -7.962902 17.319885 -22.729335 5.285614 -0.768050 11.002411
lowerback -10.106783 -4.409015 -8.950498 
upperback 1.612930 -4.632530 -0.781748 
thorax 8.078817 -2.617277 3.374463 
lowerneck 0.944836 -10.034027 -7.882278 
upperneck 1.589789 -13.633871 13.242032 
head 1.785873 -6.735160 4.896365 
rclavicle 0.000000 0.000000 
rhumerus -51.353289 -40.307720 -61.201399 
rradius 28.104997 
rwrist 47.919402 
rhand -19.901279 -5.359492 
rfingers 0.000000 
rthumb 6.435096 -35.241713 
lclavicle 0.000000 0.000000 
lhumerus -18.474350 14.123207 88.180568 
lradius 40.833094 
lwrist -32.170288 
lhand -11.595230 5.227620 
lfingers 0.000000 
lthumb 14.447073 34.704788 
rfemur -34.267259 -1.702950 15.486875 
rtibia 30.004393 
rfoot -16.336302 -16.084101 
rtoes 16.028474 
lfemur 8.593817 1.662756 -30.096910 
ltibia 20.152142 
lfoot -12.899763 2.848317 
ltoes -39.952963 
13
root -7.979522 17.327271 -22.628863 5.138855 -0.691615 10.730705
lowerback -10.131773 -4.381002 -8.621840 
upperback 1.677567 -4.641761 -0.715723 
thorax 8.140285 -2.614646 3.256918 
lowerneck 0.867665 -10.085873 -7.704059 
upperneck 1.599243 -13.694570 13.030512 
head 1.780239 -6.763938 4.799552 
rclavicle 0.000000 0.000000 
rhumerus -51.353300 -40.486349 -61.101382 
rradius 28.026328 
rwrist 48.125866 
rhand -19.828859 -5.161631 
rfingers 0.000000 
rthumb 6.505046 -35.041746 
lclavicle 0.000000 0.000000 
lhumerus -18.707914 14.479918 88.117331 
lradius 40.525391 
lwrist -32.600100 
lhand -11.739088 5.092104 
lfingers 0.000000 
lthumb 14.308454 34.579117 
rfemur -33.821898 -1.844159 15.893738 
rtibia 30.245739 
rfoot -16.326261 -15.631625 
rtoes 15.700968 
lfemur 8.147702 1.828218 -29.609010 
ltibia 21.835141 
lfoot -12.347031 2.640003 
ltoes -39.529631 
